<svg width="220" height="100" viewBox="0 0 220 100" fill="none" xmlns="http://www.w3.org/2000/svg">
<g clip-path="url(#clip0_3_12)">
<path d="M71.0386 47.0261V20.6979C71.0386 17.7292 72.1324 14.8125 74.3199 11.9479C77.3928 8.04169 81.5334 6.08856 86.7418 6.08856V9.05731C81.898 9.05731 78.2522 11.1146 75.8043 15.2292C74.7105 17.1563 74.1636 18.9792 74.1636 20.6979V47.0261C74.1636 49.5781 75.2053 52.0261 77.2886 54.3698C79.7366 57.1302 82.8876 58.5365 86.7418 58.5886V61.5573C80.648 61.5573 76.1168 59.0573 73.148 54.0573C71.7418 51.6094 71.0386 49.2656 71.0386 47.0261ZM90.2574 61.5573V58.5886C90.2574 58.5886 91.2209 58.4323 93.148 58.1198C97.6272 56.8698 100.492 54.2656 101.742 50.3073C101.846 49.8906 102.028 49.0573 102.289 47.8073C102.393 46.8698 102.445 46.375 102.445 46.3229L105.101 46.9479C105.101 51.4792 103.252 55.2292 99.5543 58.1979C96.7418 60.4375 93.6428 61.5573 90.2574 61.5573ZM90.2574 9.05731V6.08856C94.2678 6.03648 97.8355 7.70315 100.961 11.0886C103.721 14.0573 105.101 17.3125 105.101 20.8542L102.289 21.5573C102.289 20.9844 102.263 20.5417 102.211 20.2292C102.106 19.5521 101.95 18.875 101.742 18.1979C101.169 16.5313 100.362 15.0729 99.3199 13.8229C98.3303 12.5729 97.3147 11.6615 96.273 11.0886C95.2834 10.4636 94.3199 9.99481 93.3824 9.68231C92.4449 9.36981 91.6897 9.18752 91.1168 9.13544L90.2574 9.05731ZM110.57 61.1667L121.273 14.3698H122.601L123.382 17.8854L113.695 61.1667H110.57ZM119.476 50.6198L120.101 47.6511H133.382L124.398 6.55731H127.523L139.398 61.1667H136.273L134.086 50.6198H119.476ZM145.023 61.1667V6.47919H148.148V61.1667H145.023ZM151.664 36.3229V33.2761H164.164C169.007 33.2761 172.028 31.375 173.226 27.5729C173.747 25.9063 174.007 23.875 174.007 21.4792C174.007 15.2813 172.002 11.4271 167.992 9.91669C166.377 9.34377 164.424 9.05731 162.132 9.05731H151.664V6.47919H163.851C170.622 6.84377 174.815 9.76044 176.429 15.2292C176.95 17.1563 177.211 19.3177 177.211 21.7136C177.158 28.4323 175.362 32.8073 171.82 34.8386C175.466 36.5052 177.471 39.6302 177.836 44.2136L179.164 61.1667H176.039L174.867 47.2604C174.45 42.5729 173.356 39.5 171.586 38.0417C170.075 36.7917 167.888 36.2188 165.023 36.3229H151.664ZM183.851 48.8229L186.742 47.8073C187.106 49.6823 187.757 51.349 188.695 52.8073C189.684 54.2136 190.7 55.2552 191.742 55.9323C192.836 56.6094 193.903 57.1563 194.945 57.5729C195.987 57.9896 196.846 58.25 197.523 58.3542L198.539 58.4323V61.4011C193.799 61.4011 189.867 59.4219 186.742 55.4636C184.867 53.0677 183.903 50.8542 183.851 48.8229ZM184.476 21.0104C184.476 15.4896 186.924 11.3229 191.82 8.51044C194.216 7.15627 196.455 6.47919 198.539 6.47919V9.44794C196.664 9.44794 194.632 10.2552 192.445 11.8698C189.268 14.3177 187.653 17.5209 187.601 21.4792C187.601 25.6979 190.7 28.6406 196.898 30.3073C197.471 30.4636 200.492 31.0625 205.961 32.1042C206.898 32.3125 207.679 32.4948 208.304 32.6511C213.044 33.9531 216.065 36.2709 217.367 39.6042C217.992 41.2709 218.304 43.1719 218.304 45.3073C218.304 49.6823 216.586 53.5104 213.148 56.7917C209.919 59.8646 206.221 61.4011 202.054 61.4011V58.4323C204.45 58.4323 207.028 57.3386 209.789 55.1511C213.33 52.2344 215.127 48.7969 215.179 44.8386C215.179 40.1511 212.002 36.974 205.648 35.3073C205.075 35.2031 202.211 34.6823 197.054 33.7448C195.7 33.5365 194.711 33.3021 194.086 33.0417C189.867 31.4792 187.132 29.5261 185.882 27.1823C184.945 25.5156 184.476 23.4584 184.476 21.0104ZM202.054 9.44794V6.47919C206.794 6.47919 210.7 8.69273 213.773 13.1198C215.023 14.8906 215.804 16.5052 216.117 17.9636L213.148 18.9011C212.679 17.1823 211.976 15.6979 211.039 14.4479C210.101 13.1459 209.138 12.2084 208.148 11.6354C207.158 11.0104 206.195 10.5156 205.257 10.1511C204.32 9.78648 203.539 9.57815 202.914 9.52606L202.054 9.44794Z" fill="#0076A7"/>
<path d="M93.032 78.4125L86.168 93.8125H85.046L78.182 78.4125H79.414L85.64 92.3605L91.866 78.4125H93.032ZM106.141 92.8005V93.8125H95.5152V78.4125H105.811V79.4245H96.6372V85.4965H104.843V86.4865H96.6372V92.8005H106.141ZM110.232 78.4125H111.354V93.8125H110.232V78.4125ZM112.608 74.5625H114.192L110.738 77.1585H109.55L112.608 74.5625ZM123.232 93.9225C121.722 93.9225 120.358 93.5852 119.14 92.9105C117.938 92.2358 116.984 91.3045 116.28 90.1165C115.591 88.9285 115.246 87.5938 115.246 86.1125C115.246 84.6312 115.591 83.2965 116.28 82.1085C116.984 80.9205 117.938 79.9892 119.14 79.3145C120.358 78.6398 121.722 78.3025 123.232 78.3025C124.347 78.3025 125.374 78.4858 126.312 78.8525C127.251 79.2045 128.05 79.7325 128.71 80.4365L128.006 81.1625C126.774 79.9452 125.198 79.3365 123.276 79.3365C121.986 79.3365 120.812 79.6298 119.756 80.2165C118.7 80.8032 117.872 81.6172 117.27 82.6585C116.669 83.6852 116.368 84.8365 116.368 86.1125C116.368 87.3885 116.669 88.5472 117.27 89.5885C117.872 90.6152 118.7 91.4218 119.756 92.0085C120.812 92.5952 121.986 92.8885 123.276 92.8885C125.183 92.8885 126.76 92.2725 128.006 91.0405L128.71 91.7665C128.05 92.4705 127.244 93.0058 126.29 93.3725C125.352 93.7392 124.332 93.9225 123.232 93.9225ZM138.475 93.9225C136.524 93.9225 135.006 93.3578 133.921 92.2285C132.85 91.0992 132.315 89.4492 132.315 87.2785V78.4125H133.437V87.2345C133.437 89.1265 133.87 90.5418 134.735 91.4805C135.6 92.4192 136.854 92.8885 138.497 92.8885C140.125 92.8885 141.372 92.4192 142.237 91.4805C143.102 90.5418 143.535 89.1265 143.535 87.2345V78.4125H144.657V87.2785C144.657 89.4492 144.114 91.0992 143.029 92.2285C141.944 93.3578 140.426 93.9225 138.475 93.9225ZM149.892 78.4125H151.014V92.8005H159.88V93.8125H149.892V78.4125ZM168.995 93.9225C167.484 93.9225 166.12 93.5852 164.903 92.9105C163.685 92.2212 162.725 91.2825 162.021 90.0945C161.331 88.9065 160.987 87.5792 160.987 86.1125C160.987 84.6458 161.331 83.3185 162.021 82.1305C162.725 80.9425 163.685 80.0112 164.903 79.3365C166.12 78.6472 167.484 78.3025 168.995 78.3025C170.505 78.3025 171.869 78.6398 173.087 79.3145C174.304 79.9892 175.257 80.9205 175.947 82.1085C176.651 83.2965 177.003 84.6312 177.003 86.1125C177.003 87.5938 176.651 88.9285 175.947 90.1165C175.257 91.3045 174.304 92.2358 173.087 92.9105C171.869 93.5852 170.505 93.9225 168.995 93.9225ZM168.995 92.8885C170.285 92.8885 171.451 92.5952 172.493 92.0085C173.534 91.4218 174.355 90.6152 174.957 89.5885C175.558 88.5472 175.859 87.3885 175.859 86.1125C175.859 84.8365 175.558 83.6852 174.957 82.6585C174.355 81.6172 173.534 80.8032 172.493 80.2165C171.451 79.6298 170.285 79.3365 168.995 79.3365C167.704 79.3365 166.531 79.6298 165.475 80.2165C164.433 80.8032 163.612 81.6172 163.011 82.6585C162.409 83.6852 162.109 84.8365 162.109 86.1125C162.109 87.3885 162.409 88.5472 163.011 89.5885C163.612 90.6152 164.433 91.4218 165.475 92.0085C166.531 92.5952 167.704 92.8885 168.995 92.8885ZM184.942 93.9225C183.813 93.9225 182.735 93.7318 181.708 93.3505C180.696 92.9545 179.904 92.4485 179.332 91.8325L179.838 90.9965C180.381 91.5685 181.107 92.0378 182.016 92.4045C182.94 92.7565 183.908 92.9325 184.92 92.9325C186.387 92.9325 187.494 92.6538 188.242 92.0965C188.99 91.5392 189.364 90.8132 189.364 89.9185C189.364 89.2292 189.166 88.6792 188.77 88.2685C188.374 87.8578 187.883 87.5425 187.296 87.3225C186.709 87.1025 185.917 86.8752 184.92 86.6405C183.791 86.3618 182.881 86.0905 182.192 85.8265C181.517 85.5625 180.938 85.1592 180.454 84.6165C179.985 84.0592 179.75 83.3185 179.75 82.3945C179.75 81.6465 179.948 80.9645 180.344 80.3485C180.74 79.7178 181.341 79.2192 182.148 78.8525C182.969 78.4858 183.989 78.3025 185.206 78.3025C186.057 78.3025 186.893 78.4272 187.714 78.6765C188.535 78.9258 189.247 79.2632 189.848 79.6885L189.43 80.5905C188.814 80.1652 188.132 79.8425 187.384 79.6225C186.651 79.4025 185.925 79.2925 185.206 79.2925C183.783 79.2925 182.705 79.5785 181.972 80.1505C181.239 80.7225 180.872 81.4632 180.872 82.3725C180.872 83.0618 181.07 83.6118 181.466 84.0225C181.862 84.4332 182.353 84.7485 182.94 84.9685C183.527 85.1885 184.326 85.4232 185.338 85.6725C186.467 85.9512 187.369 86.2225 188.044 86.4865C188.719 86.7505 189.291 87.1538 189.76 87.6965C190.244 88.2245 190.486 88.9432 190.486 89.8525C190.486 90.6005 190.281 91.2825 189.87 91.8985C189.474 92.5145 188.858 93.0058 188.022 93.3725C187.186 93.7392 186.159 93.9225 184.942 93.9225Z" fill="#0076A7"/>
<path d="M4.23047 4.29688H16.2617L40.5977 87.4219L36.2227 100H31.9844L4.23047 4.29688ZM37.5898 55.0195L54.543 4.29688H66.5742C65.7539 6.9401 62.3359 17.513 56.3203 36.0156C49.3021 57.526 45.2917 69.8763 44.2891 73.0664H42.9219L37.5898 55.0195Z" fill="#0076A7"/>
</g>
<defs>
<clipPath id="clip0_3_12">
<rect width="220" height="100" fill="white"/>
</clipPath>
</defs>
</svg>
